HIERARCHY
ROOT Model
{
	OFFSET 0 0 0
	CHANNELS 6 Xposition Yposition Zposition Zrotation Xrotation Yrotation
	JOINT Model1
	{
		OFFSET 0 -2.25479 2.99384
		CHANNELS 3 Zrotation Xrotation Yrotation
		JOINT Model2
		{
			OFFSET 12.111 0 0
			CHANNELS 3 Zrotation Xrotation Yrotation
			JOINT Model3
			{
				OFFSET 11.5502 0 0
				CHANNELS 3 Zrotation Xrotation Yrotation
				JOINT Model4
				{
					OFFSET 11.781 0 0
					CHANNELS 3 Zrotation Xrotation Yrotation
					JOINT Model5
					{
						OFFSET 20.0601 0 0
						CHANNELS 3 Zrotation Xrotation Yrotation
						JOINT Model6
						{
							OFFSET 11.1962 0 0
							CHANNELS 3 Zrotation Xrotation Yrotation
							End Site
							{
								OFFSET 0 0 0
							}
						}
					}
					JOINT Model7
					{
						OFFSET 10.8223 0.417534 3.51114
						CHANNELS 3 Zrotation Xrotation Yrotation
						JOINT Model8
						{
							OFFSET -6.07944 0 0
							CHANNELS 3 Zrotation Xrotation Yrotation
							JOINT Model9
							{
								OFFSET -0.277405 10.39 -0.051239
								CHANNELS 3 Zrotation Xrotation Yrotation
								JOINT Model10
								{
									OFFSET -3.43909 -0.282043 1.86679
									CHANNELS 3 Zrotation Xrotation Yrotation
									JOINT Model11
									{
										OFFSET 13.0269 0 0
										CHANNELS 3 Zrotation Xrotation Yrotation
										JOINT Model12
										{
											OFFSET 10.8866 0 0
											CHANNELS 3 Zrotation Xrotation Yrotation
											JOINT Model13
											{
												OFFSET 16.7317 0 0
												CHANNELS 3 Zrotation Xrotation Yrotation
												JOINT Model14
												{
													OFFSET 11.8292 0 0
													CHANNELS 3 Zrotation Xrotation Yrotation
													JOINT Model15
													{
														OFFSET 4.82751 -3.73566 -0.836517
														CHANNELS 3 Zrotation Xrotation Yrotation
														JOINT Model16
														{
															OFFSET 3.75311 -0.0582886 -0.0186462
															CHANNELS 3 Zrotation Xrotation Yrotation
															JOINT Model17
															{
																OFFSET 2.88689 0.0192337 0.014801
																CHANNELS 3 Zrotation Xrotation Yrotation
																End Site
																{
																	OFFSET 0 0 0
																}
															}
														}
													}
													JOINT Model18
													{
														OFFSET 9.72197 -3.06458 0.23877
														CHANNELS 3 Zrotation Xrotation Yrotation
														JOINT Model19
														{
															OFFSET 4.61131 0 0
															CHANNELS 3 Zrotation Xrotation Yrotation
															JOINT Model20
															{
																OFFSET 2.8969 -7.62939e-006 0
																CHANNELS 3 Zrotation Xrotation Yrotation
																End Site
																{
																	OFFSET 0 0 0
																}
															}
														}
													}
													JOINT Model21
													{
														OFFSET 9.54431 -0.745064 0.588928
														CHANNELS 3 Zrotation Xrotation Yrotation
														JOINT Model22
														{
															OFFSET 5.33978 0 0
															CHANNELS 3 Zrotation Xrotation Yrotation
															JOINT Model23
															{
																OFFSET 3.03619 7.62939e-006 0
																CHANNELS 3 Zrotation Xrotation Yrotation
																End Site
																{
																	OFFSET 0 0 0
																}
															}
														}
													}
													JOINT Model24
													{
														OFFSET 9.47758 1.51286 0.485107
														CHANNELS 3 Zrotation Xrotation Yrotation
														JOINT Model25
														{
															OFFSET 4.96136 7.62939e-006 0
															CHANNELS 3 Zrotation Xrotation Yrotation
															JOINT Model26
															{
																OFFSET 2.51965 0 0
																CHANNELS 3 Zrotation Xrotation Yrotation
																End Site
																{
																	OFFSET 0 0 0
																}
															}
														}
													}
													JOINT Model27
													{
														OFFSET 9.34247 3.34117 -0.239288
														CHANNELS 3 Zrotation Xrotation Yrotation
														JOINT Model28
														{
															OFFSET 3.28259 2.28882e-005 0
															CHANNELS 3 Zrotation Xrotation Yrotation
															JOINT Model29
															{
																OFFSET 2.1292 0 0
																CHANNELS 3 Zrotation Xrotation Yrotation
																End Site
																{
																	OFFSET 0 0 0
																}
															}
														}
													}
												}
											}
										}
									}
								}
							}
						}
					}
					JOINT Model30
					{
						OFFSET 10.8223 0.4179 -3.51108
						CHANNELS 3 Zrotation Xrotation Yrotation
						JOINT Model31
						{
							OFFSET 6.07944 0 0
							CHANNELS 3 Zrotation Xrotation Yrotation
							JOINT Model32
							{
								OFFSET 0.277405 -10.39 0.051239
								CHANNELS 3 Zrotation Xrotation Yrotation
								JOINT Model33
								{
									OFFSET 3.43909 0.282043 -1.86679
									CHANNELS 3 Zrotation Xrotation Yrotation
									JOINT Model34
									{
										OFFSET -13.0269 0 0
										CHANNELS 3 Zrotation Xrotation Yrotation
										JOINT Model35
										{
											OFFSET -10.8866 0 0
											CHANNELS 3 Zrotation Xrotation Yrotation
											JOINT Model36
											{
												OFFSET -16.7317 0 0
												CHANNELS 3 Zrotation Xrotation Yrotation
												JOINT Model37
												{
													OFFSET -11.8292 0 0
													CHANNELS 3 Zrotation Xrotation Yrotation
													JOINT Model38
													{
														OFFSET -4.82751 3.73566 0.836517
														CHANNELS 3 Zrotation Xrotation Yrotation
														JOINT Model39
														{
															OFFSET -3.75311 0.0582886 0.0186462
															CHANNELS 3 Zrotation Xrotation Yrotation
															JOINT Model40
															{
																OFFSET -2.88687 -0.0192337 -0.014801
																CHANNELS 3 Zrotation Xrotation Yrotation
																End Site
																{
																	OFFSET 0 0 0
																}
															}
														}
													}
													JOINT Model41
													{
														OFFSET -9.72198 3.06459 -0.23877
														CHANNELS 3 Zrotation Xrotation Yrotation
														JOINT Model42
														{
															OFFSET -4.6113 0 0
															CHANNELS 3 Zrotation Xrotation Yrotation
															JOINT Model43
															{
																OFFSET -2.89691 0 0
																CHANNELS 3 Zrotation Xrotation Yrotation
																End Site
																{
																	OFFSET 0 0 0
																}
															}
														}
													}
													JOINT Model44
													{
														OFFSET -9.54431 0.745064 -0.588928
														CHANNELS 3 Zrotation Xrotation Yrotation
														JOINT Model45
														{
															OFFSET -5.33978 0 0
															CHANNELS 3 Zrotation Xrotation Yrotation
															JOINT Model46
															{
																OFFSET -3.03619 -1.52588e-005 0
																CHANNELS 3 Zrotation Xrotation Yrotation
																End Site
																{
																	OFFSET 0 0 0
																}
															}
														}
													}
													JOINT Model47
													{
														OFFSET -9.4776 -1.51286 -0.485107
														CHANNELS 3 Zrotation Xrotation Yrotation
														JOINT Model48
														{
															OFFSET -4.96136 -1.52588e-005 0
															CHANNELS 3 Zrotation Xrotation Yrotation
															JOINT Model49
															{
																OFFSET -2.51965 0 0
																CHANNELS 3 Zrotation Xrotation Yrotation
																End Site
																{
																	OFFSET 0 0 0
																}
															}
														}
													}
													JOINT Model50
													{
														OFFSET -9.34247 -3.34118 0.239288
														CHANNELS 3 Zrotation Xrotation Yrotation
														JOINT Model51
														{
															OFFSET -3.28259 -2.28882e-005 0
															CHANNELS 3 Zrotation Xrotation Yrotation
															JOINT Model52
															{
																OFFSET -2.12921 0 0
																CHANNELS 3 Zrotation Xrotation Yrotation
																End Site
																{
																	OFFSET 0 0 0
																}
															}
														}
													}
												}
											}
										}
									}
								}
							}
						}
					}
				}
			}
		}
	}
	JOINT Model53
	{
		OFFSET 4.38025 -2.14632 -1.11517
		CHANNELS 3 Zrotation Xrotation Yrotation
		JOINT Model54
		{
			OFFSET 0 0 4.94998
			CHANNELS 3 Zrotation Xrotation Yrotation
			JOINT Model55
			{
				OFFSET 18.5642 0 0
				CHANNELS 3 Zrotation Xrotation Yrotation
				JOINT Model56
				{
					OFFSET 21.2884 0 0
					CHANNELS 3 Zrotation Xrotation Yrotation
					JOINT Model57
					{
						OFFSET 30.261 0 0
						CHANNELS 3 Zrotation Xrotation Yrotation
						JOINT Model58
						{
							OFFSET 11.7259 0 0
							CHANNELS 3 Zrotation Xrotation Yrotation
							JOINT Model59
							{
								OFFSET 10.682 0 0
								CHANNELS 3 Zrotation Xrotation Yrotation
								End Site
								{
									OFFSET 0 0 0
								}
							}
						}
					}
				}
			}
		}
	}
	JOINT Model60
	{
		OFFSET -4.38025 -2.14632 -1.11517
		CHANNELS 3 Zrotation Xrotation Yrotation
		JOINT Model61
		{
			OFFSET 0 0 -4.94998
			CHANNELS 3 Zrotation Xrotation Yrotation
			JOINT Model62
			{
				OFFSET -18.5642 0 0
				CHANNELS 3 Zrotation Xrotation Yrotation
				JOINT Model63
				{
					OFFSET -21.2884 0 0
					CHANNELS 3 Zrotation Xrotation Yrotation
					JOINT Model64
					{
						OFFSET -30.261 0 0
						CHANNELS 3 Zrotation Xrotation Yrotation
						JOINT Model65
						{
							OFFSET -11.7259 0 0
							CHANNELS 3 Zrotation Xrotation Yrotation
							JOINT Model66
							{
								OFFSET -10.682 0 0
								CHANNELS 3 Zrotation Xrotation Yrotation
								End Site
								{
									OFFSET 0 0 0
								}
							}
						}
					}
				}
			}
		}
	}
}
MOTION
Frames: 6
Frame Time: 0.033333
-644.17 121.593 -743.43 60.7675 -53.9387 75.5144 -180 4.29621e-031 -90 3.49674 1.17632 1.41664 6.96571 2.43609 2.75979 6.96571 2.43652 2.75973 6.38749 1.87747 3.00916 -17.5119 3.07913 -3.10808 120.092 75.5343 58.4939 -7.61496 2.25979 2.5129 -167.277 84.4999 48.8109 154.523 -17.6541 -7.13368 1.86994e-005 -4.56678 3.17895e-005 -73.1531 -9.54501 0.591401 -1.50786e-006 -14.9313 -2.15418e-006 5.6659 -0.0688245 -1.39075 -72.0648 39.0385 39.3397 33.3638 2.10362 14.835 0.588947 0.308273 6.35287 -99.6409 81.413 100.35 -0.0181409 2.77842e-005 -0.117315 -0.124139 0.00241113 -0.799296 -79.8382 79.5773 80.5374 -0.000225779 -0.000220917 2.21973e-005 -0.000956229 0.000122902 -2.73169e-005 -66.7416 80.4058 67.2171 -0.000437134 1.5951e-005 -2.73178e-005 -0.000136607 -0.000109284 -5.46375e-005 -6.42159 81.2158 8.01779 -0.000218568 1.69076e-005 0.000212143 0.000901581 -0.000184802 -0.000218561 -59.9282 75.5373 58.5147 -1.54314 14.8045 5.30788 -167.277 84.4999 48.8109 -167.902 -16.2121 3.32576 7.3711e-006 -0.8802 2.92202e-005 -107.324 -16.5754 0.606046 -5.31437e-006 -24.9715 4.1841e-006 -2.86274 0.509277 -20.1706 -72.0648 39.0385 39.3397 33.3638 2.10361 14.835 0.588946 0.308273 6.35287 -99.6409 81.413 100.35 -0.0181409 3.00606e-005 -0.117315 -0.124139 0.00241111 -0.799296 -79.8382 79.5773 80.5374 -0.00026064 -0.000218584 2.35728e-005 -0.000956218 0.000122973 -2.73175e-005 -66.7416 80.4058 67.2171 -0.000437126 1.48637e-005 -2.73192e-005 -0.000136595 -0.000109307 -5.46394e-005 -6.42159 81.2158 8.01779 -0.00021856 1.95606e-005 0.000212295 0.000901591 -0.00019127 -0.000218569 0.000811311 0.56661 89.91 -70.6542 12.0669 -19.4519 8.3179e-008 15.6745 2.54975e-010 144.245 12.6049 -0.00500432 -4.58764e-008 18.8419 -6.45174e-008 -63.4029 -16.6265 9.08591 -120.65 10.9347 29.2164 -180 -0.566579 -90.09 -128.916 5.14466 -11.1304 -3.97623e-007 -3.49623 -9.56914e-009 120.825 4.40401 -0.00654362 3.36927e-007 6.50241 -2.43236e-007 -58.0841 -1.34415 0.321451 -35.4947 1.78061e-006 3.81599e-006 
-644.148 121.994 -742.447 58.8321 -53.4078 73.9053 -180 4.29621e-031 -90 3.69045 1.15071 1.42794 7.35349 2.39019 2.77973 7.3535 2.39062 2.77967 6.06239 1.90188 2.68358 -19.7367 3.08833 -2.96434 120.092 75.5343 58.4939 -6.90751 2.79721 2.57113 -167.277 84.4999 48.8109 153.158 -17.6557 -7.72712 1.88217e-005 -4.78641 3.17994e-005 -73.0902 -9.44945 0.591037 -1.50231e-006 -14.7885 -2.15275e-006 5.7332 -0.0702046 -1.40196 -72.0648 39.0385 39.3397 33.3638 2.10362 14.835 0.588947 0.308273 6.35287 -99.6409 81.413 100.35 -0.0181409 2.77842e-005 -0.117315 -0.124139 0.00241113 -0.799296 -79.8382 79.5773 80.5374 -0.000225779 -0.000220917 2.21973e-005 -0.000956229 0.000122902 -2.73169e-005 -66.7416 80.4058 67.2171 -0.000437134 1.5951e-005 -2.73178e-005 -0.000136607 -0.000109284 -5.46375e-005 -6.42159 81.2158 8.01779 -0.000218568 1.69076e-005 0.000212143 0.000901581 -0.000184802 -0.000218561 -59.9282 75.5373 58.5147 -1.07348 15.5169 5.38464 -167.277 84.4999 48.8109 -168.662 -16.5861 2.92696 7.56561e-006 -1.26151 2.92239e-005 -107.28 -16.617 0.606323 -5.30926e-006 -25.0349 4.18626e-006 -3.10076 0.575288 -21.0164 -72.0648 39.0385 39.3397 33.3638 2.10361 14.835 0.588946 0.308273 6.35287 -99.6409 81.413 100.35 -0.0181409 3.00606e-005 -0.117315 -0.124139 0.00241111 -0.799296 -79.8382 79.5773 80.5374 -0.00026064 -0.000218584 2.35728e-005 -0.000956218 0.000122973 -2.73175e-005 -66.7416 80.4058 67.2171 -0.000437126 1.48637e-005 -2.73192e-005 -0.000136595 -0.000109307 -5.46394e-005 -6.42159 81.2158 8.01779 -0.00021856 1.95606e-005 0.000212295 0.000901591 -0.00019127 -0.000218569 0.000811311 0.56661 89.91 -70.2198 12.0237 -20.3109 8.31793e-008 15.6097 2.54895e-010 143.194 12.5862 -0.00516866 -4.59122e-008 18.8119 -6.45058e-008 -64.0661 -16.2315 8.70187 -120.162 10.3543 26.3658 -180 -0.566579 -90.09 -129.561 4.8928 -10.7911 -3.9765e-007 -3.65911 -9.57084e-009 121.584 4.20823 -0.00657847 3.35677e-007 6.20968 -2.43097e-007 -59.4934 -1.01684 0.0353314 -35.4947 1.64368e-006 3.29945e-006 
-644.184 122.405 -741.383 56.7143 -52.8675 72.1783 -180 4.29621e-031 -90 3.86917 1.11307 1.43799 7.71157 2.31988 2.79843 7.71157 2.32031 2.79837 5.42515 1.997 2.3668 -21.5635 3.1776 -2.89896 120.092 75.5343 58.4939 -6.05179 3.48371 2.6456 -167.277 84.4999 48.8109 151.846 -17.6436 -8.51601 1.89288e-005 -4.97867 3.18086e-005 -72.9265 -9.41642 0.590466 -1.50043e-006 -14.7401 -2.15228e-006 5.64724 -0.0725364 -1.4706 -72.0648 39.0385 39.3397 33.3638 2.10362 14.835 0.588947 0.308273 6.35287 -99.6409 81.413 100.35 -0.0181409 2.77842e-005 -0.117315 -0.124139 0.00241113 -0.799296 -79.8382 79.5773 80.5374 -0.000225779 -0.000220917 2.21973e-005 -0.000956229 0.000122902 -2.73169e-005 -66.7416 80.4058 67.2171 -0.000437134 1.5951e-005 -2.73178e-005 -0.000136607 -0.000109284 -5.46375e-005 -6.42159 81.2158 8.01779 -0.000218568 1.69076e-005 0.000212143 0.000901581 -0.000184802 -0.000218561 -59.9282 75.5373 58.5147 -0.44272 16.2475 5.40961 -167.277 84.4999 48.8109 -169.794 -16.7865 2.513 7.64492e-006 -1.41696 2.92257e-005 -107.133 -16.5212 0.606509 -5.32059e-006 -24.8943 4.18148e-006 -3.59418 0.701297 -22.0748 -72.0648 39.0385 39.3397 33.3638 2.10361 14.835 0.588946 0.308273 6.35287 -99.6409 81.413 100.35 -0.0181409 3.00606e-005 -0.117315 -0.124139 0.00241111 -0.799296 -79.8382 79.5773 80.5374 -0.00026064 -0.000218584 2.35728e-005 -0.000956218 0.000122973 -2.73175e-005 -66.7416 80.4058 67.2171 -0.000437126 1.48637e-005 -2.73192e-005 -0.000136595 -0.000109307 -5.46394e-005 -6.42159 81.2158 8.01779 -0.00021856 1.95606e-005 0.000212295 0.000901591 -0.00019127 -0.000218569 0.000811311 0.56661 89.91 -69.9162 12.0052 -21.3132 8.31797e-008 15.5374 2.54805e-010 142.125 12.5007 -0.0053494 -4.60671e-008 18.6815 -6.4456e-008 -64.4165 -15.6498 8.28467 -119.608 9.57546 22.536 -180 -0.566579 -90.09 -130.283 4.54588 -10.4041 -3.97694e-007 -3.92286 -9.57376e-009 122.346 3.96853 -0.00661362 3.34147e-007 5.85108 -2.42937e-007 -60.9447 -0.599831 -0.296061 -35.4947 1.50484e-006 2.76575e-006 
-644.324 122.829 -740.34 54.5081 -52.3787 70.4222 -180 4.29621e-031 -90 4.03435 1.07498 1.45357 8.04247 2.24881 2.82869 8.04247 2.24925 2.82862 4.25879 2.18415 1.97 -22.6224 3.31663 -2.80523 120.092 75.5343 58.4939 -4.99446 4.22217 2.68413 -167.277 84.4999 48.8109 150.575 -17.6677 -9.32302 1.90742e-005 -5.23947 3.18215e-005 -72.7272 -9.41464 0.589832 -1.50038e-006 -14.7389 -2.15226e-006 5.34476 -0.0698617 -1.49666 -72.0648 39.0385 39.3397 33.3638 2.10362 14.835 0.588947 0.308273 6.35287 -99.6409 81.413 100.35 -0.0181409 2.77842e-005 -0.117315 -0.124139 0.00241113 -0.799296 -79.8382 79.5773 80.5374 -0.000225779 -0.000220917 2.21973e-005 -0.000956229 0.000122902 -2.73169e-005 -66.7416 80.4058 67.2171 -0.000437134 1.5951e-005 -2.73178e-005 -0.000136607 -0.000109284 -5.46375e-005 -6.42159 81.2158 8.01779 -0.000218568 1.69076e-005 0.000212143 0.000901581 -0.000184802 -0.000218561 -59.9282 75.5373 58.5147 0.442213 16.9601 5.33883 -167.277 84.4999 48.8109 -171.279 -16.7832 2.11411 7.59684e-006 -1.32272 2.92246e-005 -106.955 -16.3235 0.606483 -5.34409e-006 -24.6015 4.17164e-006 -4.22642 0.868139 -23.2053 -72.0648 39.0385 39.3397 33.3638 2.10361 14.835 0.588946 0.308273 6.35287 -99.6409 81.413 100.35 -0.0181409 3.00606e-005 -0.117315 -0.124139 0.00241111 -0.799296 -79.8382 79.5773 80.5374 -0.00026064 -0.000218584 2.35728e-005 -0.000956218 0.000122973 -2.73175e-005 -66.7416 80.4058 67.2171 -0.000437126 1.48637e-005 -2.73192e-005 -0.000136595 -0.000109307 -5.46394e-005 -6.42159 81.2158 8.01779 -0.00021856 1.95606e-005 0.000212295 0.000901591 -0.00019127 -0.000218569 0.000811311 0.56661 89.91 -69.8879 12.0166 -22.3809 8.31802e-008 15.4292 2.54672e-010 141.121 12.3101 -0.00554222 -4.64082e-008 18.3938 -6.43476e-008 -64.3681 -14.7507 7.77149 -118.988 8.54268 17.6803 -180 -0.566579 -90.09 -131.023 4.05745 -9.95242 -3.97761e-007 -4.32376 -9.57859e-009 122.965 3.65198 -0.0066489 3.32129e-007 5.37705 -2.42739e-007 -62.2739 -0.0898961 -0.663453 -35.4947 1.3641e-006 2.21472e-006 
-644.558 123.317 -739.294 52.3554 -52.0063 68.7568 -180 4.29621e-031 -90 4.19191 1.04052 1.48415 8.35775 2.18598 2.88903 8.35776 2.18641 2.88897 2.68668 2.48116 1.34176 -22.8982 3.43975 -2.52616 120.092 75.5343 58.4939 -3.82854 4.84712 2.64599 -167.277 84.4999 48.8109 149.267 -17.7684 -10.051 1.93041e-005 -5.65149 3.18433e-005 -72.4877 -9.43569 0.589101 -1.50168e-006 -14.7722 -2.15259e-006 4.84485 -0.0595681 -1.408 -72.0648 39.0385 39.3397 33.3638 2.10362 14.835 0.588947 0.308273 6.35287 -99.6409 81.413 100.35 -0.0181409 2.77842e-005 -0.117315 -0.124139 0.00241113 -0.799296 -79.8382 79.5773 80.5374 -0.000225779 -0.000220917 2.21973e-005 -0.000956229 0.000122902 -2.73169e-005 -66.7416 80.4058 67.2171 -0.000437134 1.5951e-005 -2.73178e-005 -0.000136607 -0.000109284 -5.46375e-005 -6.42159 81.2158 8.01779 -0.000218568 1.69076e-005 0.000212143 0.000901581 -0.000184802 -0.000218561 -59.9282 75.5373 58.5147 1.56154 17.733 5.198 -167.277 84.4999 48.8109 -173.136 -16.615 1.71515 7.44981e-006 -1.03451 2.92216e-005 -106.708 -16.0395 0.60642 -5.37768e-006 -24.1807 4.15777e-006 -4.79743 1.03723 -24.3866 -72.0648 39.0385 39.3397 33.3638 2.10361 14.835 0.588946 0.308273 6.35287 -99.6409 81.413 100.35 -0.0181409 3.00606e-005 -0.117315 -0.124139 0.00241111 -0.799296 -79.8382 79.5773 80.5374 -0.00026064 -0.000218584 2.35728e-005 -0.000956218 0.000122973 -2.73175e-005 -66.7416 80.4058 67.2171 -0.000437126 1.48637e-005 -2.73192e-005 -0.000136595 -0.000109307 -5.46394e-005 -6.42159 81.2158 8.01779 -0.00021856 1.95606e-005 0.000212295 0.000901591 -0.00019127 -0.000218569 0.000811311 0.56661 89.91 -69.857 12.0076 -23.5634 8.31809e-008 15.2771 2.54486e-010 140.061 12.0815 -0.005745 -4.68156e-008 18.0489 -6.42202e-008 -64.3025 -13.6347 7.13474 -118.22 7.38823 12.4821 -180 -0.566579 -90.09 -131.581 3.35531 -9.34098 -3.97846e-007 -4.82654 -9.58531e-009 123.408 3.22845 -0.00668424 3.2943e-007 4.74233 -2.42501e-007 -63.5599 0.473869 -1.04454 -35.4947 1.22147e-006 1.64616e-006 
-644.792 123.948 -738.119 50.3781 -51.7666 67.2464 -180 4.29621e-031 -90 4.33577 1.00412 1.53774 8.64526 2.12085 2.99591 8.64526 2.12128 2.99585 1.14598 2.88848 0.372676 -22.6592 3.4965 -1.98759 120.092 75.5343 58.4939 -2.7718 5.24406 2.54469 -167.277 84.4999 48.8109 147.909 -17.9572 -10.6481 1.96292e-005 -6.23298 3.1877e-005 -72.1327 -9.46463 0.587995 -1.50346e-006 -14.8181 -2.15305e-006 4.22581 -0.0425909 -1.15437 -72.0648 39.0385 39.3397 33.3638 2.10362 14.835 0.588947 0.308273 6.35287 -99.6409 81.413 100.35 -0.0181409 2.77842e-005 -0.117315 -0.124139 0.00241113 -0.799296 -79.8382 79.5773 80.5374 -0.000225779 -0.000220917 2.21973e-005 -0.000956229 0.000122902 -2.73169e-005 -66.7416 80.4058 67.2171 -0.000437134 1.5951e-005 -2.73178e-005 -0.000136607 -0.000109284 -5.46375e-005 -6.42159 81.2158 8.01779 -0.000218568 1.69076e-005 0.000212143 0.000901581 -0.000184802 -0.000218561 -59.9282 75.5373 58.5147 2.75771 18.667 5.06258 -167.277 84.4999 48.8109 -175.424 -16.3514 1.2685 7.25026e-006 -0.643268 2.92186e-005 -106.217 -15.6069 0.606688 -5.42822e-006 -23.5422 4.13733e-006 -5.0885 1.1576 -25.6172 -72.0648 39.0385 39.3397 33.3638 2.10361 14.835 0.588946 0.308273 6.35287 -99.6409 81.413 100.35 -0.0181409 3.00606e-005 -0.117315 -0.124139 0.00241111 -0.799296 -79.8382 79.5773 80.5374 -0.00026064 -0.000218584 2.35728e-005 -0.000956218 0.000122973 -2.73175e-005 -66.7416 80.4058 67.2171 -0.000437126 1.48637e-005 -2.73192e-005 -0.000136595 -0.000109307 -5.46394e-005 -6.42159 81.2158 8.01779 -0.00021856 1.95606e-005 0.000212295 0.000901591 -0.00019127 -0.000218569 0.000811311 0.56661 89.91 -69.267 11.8397 -24.8949 8.31819e-008 15.0499 2.54213e-010 138.671 11.8963 -0.00595606 -4.71454e-008 17.7687 -6.41188e-008 -64.9043 -12.6505 6.4521 -117.118 6.37724 8.09657 -180 -0.566579 -90.09 -131.687 2.41814 -8.47834 -3.97928e-007 -5.31921 -9.59263e-009 123.748 2.71007 -0.00671999 3.26133e-007 3.96522 -2.42251e-007 -65.0925 1.02807 -1.4085 -35.4947 1.07695e-006 1.05989e-006 
